<?xml version="1.0" encoding="utf-8"?>
<!-- Generator: Adobe Illustrator 16.0.0, SVG Export Plug-In . SVG Version: 6.00 Build 0)  -->
<!DOCTYPE svg PUBLIC "-//W3C//DTD SVG 1.1//EN" "http://www.w3.org/Graphics/SVG/1.1/DTD/svg11.dtd">
<svg version="1.1" id="Layer_1" xmlns="http://www.w3.org/2000/svg" xmlns:xlink="http://www.w3.org/1999/xlink" x="0px" y="0px"
	 width="113.25px" height="25.348px" viewBox="0 8.827 113.25 25.348" enable-background="new 0 8.827 113.25 25.348"
	 xml:space="preserve">
<g>
	<g>
		<path fill="#FFFFFF" d="M36.527,30.338c-0.246,0.76-0.625,1.402-1.14,1.932c-1.05,1.104-2.458,1.654-4.223,1.654
			c-0.894,0-1.698-0.16-2.412-0.482c-0.716-0.32-1.33-0.78-1.844-1.379l2.044-1.965c0.246,0.321,0.564,0.598,0.955,0.827
			c0.391,0.229,0.81,0.345,1.256,0.345c0.805,0,1.48-0.293,2.028-0.879c0.547-0.586,0.821-1.453,0.821-2.604V9.1h2.882v18.687
			C36.896,28.729,36.773,29.58,36.527,30.338z"/>
		<path fill="#FFFFFF" d="M50.602,33.648l-1.14-5.793h-5.529l-1.14,5.793h-3.016L45.34,9.1h2.782l5.529,24.548H50.602z
			 M46.714,13.893l-2.246,11.309h4.458L46.714,13.893z"/>
		<path fill="#FFFFFF" d="M66.988,30.441c-0.313,0.873-0.76,1.586-1.34,2.138c-0.469,0.46-1,0.799-1.592,1.019
			c-0.592,0.217-1.289,0.326-2.094,0.326c-0.961,0-1.771-0.16-2.43-0.482c-0.659-0.32-1.213-0.746-1.659-1.275
			c-0.401-0.459-0.72-0.993-0.955-1.604c-0.234-0.607-0.414-1.338-0.536-2.188c-0.123-0.851-0.196-1.845-0.218-2.981
			c-0.022-1.139-0.034-2.478-0.034-4.018c0-1.539,0.011-2.878,0.034-4.016c0.022-1.138,0.095-2.132,0.218-2.982
			c0.122-0.85,0.302-1.58,0.536-2.189c0.235-0.609,0.554-1.143,0.955-1.604c0.446-0.528,1-0.953,1.659-1.275
			c0.658-0.322,1.469-0.482,2.43-0.482c0.826,0,1.547,0.126,2.162,0.379c0.613,0.253,1.156,0.609,1.625,1.069
			c0.559,0.552,0.977,1.247,1.257,2.086c0.279,0.839,0.431,1.776,0.452,2.81h-2.882c0-0.529-0.056-1.046-0.167-1.552
			c-0.112-0.505-0.303-0.931-0.569-1.275c-0.202-0.253-0.452-0.459-0.754-0.621c-0.302-0.161-0.676-0.241-1.123-0.241
			c-0.469,0-0.86,0.086-1.173,0.258c-0.313,0.172-0.568,0.396-0.771,0.672c-0.201,0.299-0.369,0.662-0.502,1.086
			c-0.134,0.426-0.24,0.978-0.318,1.655c-0.079,0.678-0.129,1.523-0.15,2.534c-0.021,1.012-0.033,2.241-0.033,3.688
			c0,1.449,0.012,2.678,0.033,3.689c0.021,1.013,0.072,1.856,0.15,2.535c0.078,0.678,0.185,1.229,0.318,1.653
			c0.133,0.427,0.301,0.787,0.502,1.086c0.201,0.276,0.459,0.5,0.771,0.672c0.313,0.175,0.704,0.259,1.173,0.259
			c0.447,0,0.821-0.084,1.123-0.259c0.302-0.172,0.552-0.384,0.754-0.637c0.269-0.345,0.464-0.765,0.586-1.259
			s0.185-1.006,0.185-1.534h2.882C67.469,28.614,67.302,29.568,66.988,30.441z"/>
		<path fill="#FFFFFF" d="M80.729,33.648l-4.223-11.103l-2.078,4.24v6.86h-2.882V9.1h2.882v12.447L80.191,9.1h2.949l-4.826,10.137
			l5.531,14.412H80.729L80.729,33.648z"/>
		<path fill="#FFFFFF" d="M97.352,30.477c-0.27,0.713-0.648,1.321-1.141,1.828c-0.514,0.528-1.111,0.93-1.793,1.206
			c-0.682,0.274-1.412,0.413-2.195,0.413c-1.586,0-2.904-0.54-3.953-1.619c-0.492-0.507-0.873-1.115-1.14-1.828
			c-0.269-0.713-0.403-1.518-0.403-2.414V9.1h2.883v19.134c0,0.966,0.256,1.713,0.771,2.242c0.515,0.527,1.128,0.791,1.843,0.791
			s1.336-0.264,1.86-0.791c0.524-0.529,0.788-1.276,0.788-2.242V9.1h2.881v18.962C97.752,28.959,97.618,29.764,97.352,30.477z"/>
		<path fill="#FFFFFF" d="M113,27.063c0,1.289-0.102,2.352-0.301,3.189c-0.202,0.839-0.592,1.559-1.174,2.155
			c-0.447,0.459-1.021,0.821-1.727,1.085c-0.703,0.265-1.537,0.396-2.496,0.396c-1.832,0-3.229-0.486-4.189-1.464
			c-0.559-0.567-0.942-1.241-1.154-2.021c-0.214-0.78-0.318-1.825-0.318-3.137h2.881c0,0.806,0.058,1.455,0.168,1.948
			c0.111,0.494,0.324,0.914,0.639,1.259c0.199,0.229,0.469,0.414,0.804,0.553c0.335,0.137,0.726,0.205,1.173,0.205
			c0.49,0,0.897-0.068,1.223-0.205c0.324-0.139,0.599-0.334,0.82-0.588c0.313-0.369,0.521-0.807,0.62-1.313
			c0.103-0.507,0.152-1.162,0.152-1.968c0-0.715-0.034-1.313-0.101-1.797c-0.068-0.482-0.186-0.891-0.354-1.226
			c-0.169-0.334-0.402-0.614-0.704-0.847c-0.301-0.229-0.698-0.448-1.188-0.655l-2.715-1.14c-0.604-0.253-1.117-0.54-1.541-0.863
			c-0.427-0.322-0.762-0.72-1.008-1.191c-0.244-0.472-0.424-1.035-0.535-1.692c-0.11-0.656-0.168-1.456-0.168-2.4
			c0-1.082,0.152-2.048,0.453-2.9c0.303-0.852,0.754-1.565,1.357-2.141c0.982-0.944,2.244-1.416,3.787-1.416
			c0.869,0,1.636,0.121,2.295,0.362c0.658,0.241,1.212,0.592,1.658,1.051c0.604,0.598,1.017,1.305,1.24,2.121
			c0.223,0.816,0.336,1.787,0.336,2.913h-2.884c0-0.666-0.045-1.229-0.135-1.689c-0.089-0.459-0.289-0.885-0.603-1.276
			c-0.424-0.552-1.071-0.828-1.943-0.828c-0.424,0-0.788,0.069-1.09,0.207c-0.303,0.138-0.553,0.322-0.754,0.552
			c-0.56,0.644-0.838,1.62-0.838,2.93c0,0.598,0.027,1.104,0.084,1.517c0.056,0.414,0.168,0.771,0.336,1.069
			c0.166,0.299,0.4,0.551,0.703,0.758c0.301,0.207,0.688,0.414,1.156,0.621l2.682,1.138c0.67,0.276,1.224,0.604,1.658,0.983
			c0.436,0.378,0.78,0.833,1.039,1.362c0.256,0.528,0.43,1.149,0.519,1.861C112.955,25.259,113,26.098,113,27.063z"/>
	</g>
	<g>
		<polygon fill="#FFFFFF" points="17.343,30.591 13.874,30.591 13.874,34.175 13.875,34.175 17.343,34.175 		"/>
		<polygon fill="#FFFFFF" points="20.812,9.083 20.812,12.667 17.344,12.667 17.344,16.252 13.875,16.252 13.875,19.836 
			10.406,19.836 10.406,23.42 6.937,23.42 6.937,27.005 3.469,27.005 3.469,30.59 0,30.59 0,34.175 6.937,34.175 6.937,30.59 
			10.406,30.59 10.406,27.005 13.874,27.005 13.874,23.42 17.343,23.42 17.343,19.836 20.812,19.836 20.812,23.42 20.812,27.005 
			20.812,30.591 20.812,34.175 22.973,34.175 24.281,34.175 24.281,30.59 24.281,27.005 24.281,23.421 24.281,19.836 24.281,16.252 
			24.281,12.667 24.281,9.083 		"/>
	</g>
</g>
</svg>
