<?xml version="1.0" encoding="utf-8"?>
<!-- Generator: Adobe Illustrator 16.0.0, SVG Export Plug-In . SVG Version: 6.00 Build 0)  -->
<!DOCTYPE svg PUBLIC "-//W3C//DTD SVG 1.1//EN" "http://www.w3.org/Graphics/SVG/1.1/DTD/svg11.dtd">
<svg version="1.1" id="Layer_1" xmlns="http://www.w3.org/2000/svg" xmlns:xlink="http://www.w3.org/1999/xlink" x="0px" y="0px"
	 width="70px" height="71px" viewBox="0 0 70 71" enable-background="new 0 0 70 71" xml:space="preserve">
<g>
	<path fill="#303336" d="M6.136,31.45c0.108-0.341,0.211-0.91,0.307-1.709c0.095-0.799,0.17-1.604,0.225-2.417
		c0.082-0.943,0.149-1.965,0.205-3.065c0.082-0.812,0.149-1.834,0.205-3.065c0.054-1.231,0.095-2.541,0.123-3.93
		c0.027-1.389,0.041-2.797,0.041-4.226c0-1.428-0.014-2.757-0.041-3.988C7.172,7.818,7.124,6.757,7.057,5.866
		C6.988,4.976,6.899,4.373,6.791,4.059C7.308,3.771,7.772,3.561,8.181,3.43C8.59,3.299,8.944,3.207,9.245,3.154
		c0.327-0.078,0.627-0.104,0.9-0.078c0.218,0.026,0.436,0.065,0.654,0.117c0.19,0.053,0.368,0.125,0.532,0.217
		s0.286,0.216,0.368,0.373c-0.055,1.65-0.116,3.308-0.184,4.972c-0.068,1.664-0.143,3.189-0.225,4.578
		c-0.109,1.625-0.218,3.184-0.327,4.677c-0.082,1.572-0.157,2.928-0.225,4.067c-0.069,1.14-0.13,2.136-0.184,2.987
		c-0.055,0.852-0.096,1.611-0.123,2.279c-0.027,0.668-0.041,1.33-0.041,1.984c0.654-0.131,1.431-0.281,2.331-0.452
		c0.9-0.17,1.922-0.347,3.068-0.53c1.09-0.157,2.004-0.202,2.74-0.138c0.736,0.066,1.322,0.224,1.759,0.472
		c0.436,0.25,0.736,0.564,0.9,0.943c0.164,0.38,0.231,0.806,0.204,1.277c-0.055,0.523-0.096,0.93-0.123,1.219
		c-0.027,0.287-0.041,0.511-0.041,0.668c-0.3-0.184-0.709-0.314-1.227-0.394c-0.518-0.078-1.037-0.145-1.554-0.196
		c-0.6-0.053-1.227-0.065-1.881-0.039c-0.709,0.025-1.486,0.078-2.332,0.157c-0.709,0.052-1.541,0.131-2.495,0.235
		c-0.955,0.104-1.95,0.262-2.986,0.472c-0.736-0.498-1.35-0.891-1.841-1.179C6.613,31.687,6.354,31.555,6.136,31.45z"/>
	<path fill="#303336" d="M27.159,29.918c-1.909,0-3.381-0.615-4.417-1.848c-1.037-1.23-1.554-2.842-1.554-4.833
		c0-1.389,0.211-2.692,0.634-3.911c0.422-1.218,0.988-2.272,1.697-3.163c0.708-0.891,1.534-1.592,2.475-2.103
		c0.94-0.511,1.929-0.767,2.965-0.767c1.008,0,1.867,0.348,2.577,1.041c0.708,0.695,1.063,1.685,1.063,2.968
		c0,0.839-0.191,1.67-0.573,2.495c-0.382,0.825-0.879,1.56-1.493,2.201c-0.614,0.643-1.289,1.159-2.025,1.552
		c-0.736,0.394-1.445,0.59-2.126,0.59c-0.437,0-0.805-0.052-1.104-0.157c-0.3-0.104-0.573-0.262-0.818-0.472
		c0.082,1.494,0.422,2.535,1.022,3.125c0.599,0.589,1.376,0.884,2.331,0.884c0.655,0,1.233-0.131,1.738-0.393
		c0.504-0.262,0.934-0.563,1.289-0.904c0.354-0.34,0.64-0.688,0.859-1.041c0.218-0.354,0.368-0.622,0.45-0.806
		c0.082-0.157,0.225-0.236,0.43-0.236s0.307,0.157,0.307,0.472c0,0.289-0.102,0.728-0.307,1.316c-0.205,0.59-0.539,1.18-1.002,1.769
		c-0.464,0.59-1.057,1.107-1.779,1.553C29.075,29.695,28.195,29.918,27.159,29.918z M29.041,14.983c-0.164,0-0.47,0.164-0.92,0.491
		c-0.45,0.328-0.928,0.806-1.432,1.435c-0.505,0.629-0.968,1.383-1.391,2.26c-0.423,0.879-0.689,1.867-0.798,2.968
		c1.636-0.367,2.931-0.943,3.886-1.729c0.954-0.786,1.432-1.938,1.432-3.458c0-0.76-0.096-1.277-0.287-1.553
		C29.34,15.121,29.177,14.983,29.041,14.983z"/>
	<path fill="#303336" d="M50.637,11.997c-0.301-0.053-0.703-0.104-1.207-0.157c-0.504-0.052-1.016-0.092-1.533-0.118
		c-0.6-0.025-1.242-0.039-1.922-0.039c-0.684-0.052-1.535-0.059-2.557-0.02c-1.023,0.039-2.094,0.059-3.211,0.059
		c-0.027,0.682-0.076,1.376-0.145,2.083c-0.068,0.708-0.129,1.402-0.184,2.083c-0.137,1.258-0.252,2.542-0.348,3.852
		c-0.096,1.311-0.143,2.555-0.143,3.733s0.074,2.247,0.225,3.203c0.15,0.957,0.43,1.709,0.838,2.26
		c-0.326,0.235-0.682,0.412-1.063,0.53c-0.383,0.118-0.723,0.203-1.023,0.256c-0.354,0.078-0.709,0.117-1.063,0.117
		c-0.328,0-0.6-0.104-0.818-0.314c-0.219-0.209-0.342-0.575-0.367-1.1c-0.055-0.891-0.063-1.788-0.021-2.692s0.096-1.854,0.164-2.85
		c0.068-0.995,0.143-2.063,0.225-3.202c0.082-1.141,0.164-2.391,0.246-3.754c0.082-1.414,0.123-2.79,0.123-4.126
		c-1.038,0.026-1.91,0.039-2.619,0.039c-0.708,0-1.104-0.013-1.186-0.039c-0.082-0.053-0.177-0.17-0.286-0.354
		c-0.109-0.157-0.252-0.394-0.43-0.708c-0.177-0.314-0.402-0.76-0.675-1.336c0.519,0,1.084,0,1.697,0
		c0.614,0,1.179-0.013,1.698-0.039c0.6-0.026,1.199-0.053,1.8-0.079c-0.027-0.419-0.041-0.864-0.041-1.336
		c-0.027-0.367-0.041-0.779-0.041-1.238c0-0.458-0.014-0.884-0.041-1.277c0-0.157,0.197-0.347,0.592-0.569
		c0.396-0.223,0.826-0.426,1.289-0.609c0.463-0.183,0.893-0.301,1.289-0.354c0.395-0.053,0.592,0.039,0.592,0.274
		c0,0.236-0.006,0.806-0.02,1.71s-0.049,1.998-0.102,3.281c0.271,0,0.477-0.013,0.613-0.039c1.443-0.052,2.609-0.111,3.496-0.177
		s1.615-0.071,2.189-0.02c0.572,0.053,1.076,0.184,1.512,0.393c0.436,0.21,0.928,0.551,1.473,1.022
		c0.191,0.157,0.355,0.327,0.492,0.511c0.135,0.157,0.25,0.334,0.348,0.53C50.588,11.584,50.637,11.788,50.637,11.997z"/>
	<path fill="#303336" d="M46.547,3.469c0.545,0.236,1.029,0.57,1.451,1.002c0.424,0.433,0.621,0.977,0.594,1.631
		c-0.027,0.314-0.191,0.806-0.49,1.475C47.801,8.244,47.467,8.919,47.1,9.6c-0.369,0.682-0.711,1.297-1.023,1.848
		c-0.314,0.55-0.498,0.878-0.553,0.982c-0.109,0.184-0.34,0.327-0.695,0.432c-0.354,0.105-0.723,0.04-1.104-0.196
		c-0.137-0.078-0.26-0.17-0.369-0.275c-0.107-0.104-0.203-0.216-0.285-0.334c-0.082-0.117-0.15-0.281-0.205-0.491
		c0.41-1.415,0.736-2.521,0.982-3.32c0.244-0.799,0.436-1.421,0.572-1.867c0.137-0.497,0.23-0.838,0.287-1.021
		c0.107-0.341,0.176-0.675,0.203-1.002c0.027-0.328-0.014-0.675-0.123-1.042c0.328-0.131,0.709-0.144,1.146-0.039
		C46.15,3.325,46.355,3.391,46.547,3.469z"/>
	<path fill="#303336" d="M56.771,22.019c0.6,0.21,1.172,0.406,1.719,0.59c0.545,0.184,1.021,0.406,1.432,0.668
		c0.408,0.262,0.736,0.569,0.98,0.924c0.246,0.354,0.369,0.792,0.369,1.316c0,0.629-0.145,1.218-0.43,1.769
		c-0.287,0.55-0.703,1.035-1.248,1.454s-1.207,0.753-1.984,1.002c-0.775,0.248-1.643,0.373-2.596,0.373
		c-1.064,0-1.924-0.098-2.578-0.295c-0.654-0.196-1.158-0.425-1.514-0.688c-0.354-0.262-0.586-0.523-0.695-0.786
		c-0.107-0.262-0.162-0.472-0.162-0.629c0-0.314,0.066-0.661,0.203-1.041s0.396-0.792,0.777-1.238
		c0.164-0.183,0.342-0.354,0.533-0.511c0.381-0.314,0.762-0.511,1.145-0.59c-0.055,0.604,0.02,1.095,0.225,1.474
		c0.205,0.381,0.477,0.676,0.818,0.885c0.34,0.21,0.723,0.354,1.145,0.433c0.424,0.078,0.824,0.117,1.207,0.117
		c0.381,0,0.77-0.052,1.166-0.157c0.395-0.104,0.756-0.241,1.084-0.412c0.326-0.17,0.592-0.367,0.797-0.59
		c0.205-0.222,0.307-0.465,0.307-0.727c0-0.288-0.123-0.524-0.367-0.708c-0.246-0.183-0.553-0.334-0.92-0.451
		c-0.369-0.118-0.764-0.21-1.188-0.275c-0.422-0.065-0.824-0.138-1.205-0.217c-0.383-0.078-0.895-0.189-1.535-0.334
		c-0.641-0.144-1.268-0.373-1.881-0.688s-1.145-0.733-1.596-1.258c-0.449-0.523-0.674-1.218-0.674-2.083
		c0-0.995,0.266-1.866,0.797-2.613c0.531-0.746,1.186-1.375,1.963-1.886c0.777-0.512,1.602-0.897,2.475-1.16
		c0.873-0.261,1.65-0.393,2.332-0.393c0.354,0,0.736,0.046,1.145,0.138c0.41,0.092,0.791,0.249,1.146,0.472
		c0.354,0.223,0.646,0.518,0.879,0.884c0.23,0.367,0.348,0.839,0.348,1.415s-0.049,1.041-0.145,1.396
		c-0.096,0.354-0.23,0.629-0.408,0.825s-0.389,0.321-0.635,0.373c-0.244,0.053-0.531,0.079-0.857,0.079
		c-0.219,0-0.424-0.026-0.613-0.079c-0.164-0.052-0.342-0.104-0.533-0.157c-0.189-0.052-0.367-0.144-0.531-0.275
		c0.273-0.314,0.484-0.615,0.635-0.903c0.148-0.288,0.225-0.642,0.225-1.062c0-0.366-0.102-0.693-0.307-0.982
		c-0.205-0.288-0.539-0.433-1.002-0.433c-0.492,0-0.961,0.093-1.412,0.275c-0.449,0.184-0.846,0.433-1.186,0.747
		c-0.342,0.314-0.613,0.675-0.818,1.08c-0.205,0.407-0.307,0.846-0.307,1.317c0,0.707,0.279,1.375,0.838,2.004
		S55.572,21.573,56.771,22.019z"/>
	<path fill="#303336" d="M8.876,55.22c0.6,0.21,1.172,0.406,1.718,0.589c0.545,0.184,1.022,0.407,1.431,0.669
		c0.409,0.262,0.736,0.569,0.982,0.923c0.245,0.354,0.368,0.793,0.368,1.316c0,0.629-0.144,1.219-0.43,1.769
		c-0.286,0.551-0.702,1.036-1.248,1.454c-0.545,0.42-1.207,0.753-1.983,1.003c-0.777,0.248-1.643,0.373-2.597,0.373
		c-1.063,0-1.922-0.099-2.577-0.295c-0.654-0.196-1.159-0.426-1.513-0.688c-0.354-0.262-0.587-0.524-0.695-0.786
		c-0.109-0.262-0.164-0.472-0.164-0.629c0-0.314,0.068-0.661,0.205-1.041c0.136-0.38,0.395-0.793,0.777-1.238
		c0.164-0.183,0.341-0.354,0.532-0.511c0.382-0.314,0.763-0.511,1.146-0.59c-0.055,0.604,0.021,1.095,0.225,1.474
		c0.205,0.38,0.477,0.675,0.818,0.885c0.34,0.21,0.722,0.354,1.145,0.432c0.422,0.079,0.825,0.118,1.207,0.118
		s0.77-0.052,1.166-0.157c0.395-0.104,0.757-0.242,1.084-0.412c0.327-0.171,0.593-0.367,0.798-0.59s0.307-0.465,0.307-0.728
		c0-0.287-0.123-0.523-0.368-0.707c-0.246-0.183-0.552-0.334-0.92-0.452c-0.368-0.117-0.764-0.209-1.186-0.274
		c-0.423-0.065-0.825-0.138-1.207-0.217c-0.382-0.078-0.894-0.189-1.534-0.334c-0.641-0.144-1.268-0.373-1.881-0.688
		c-0.614-0.314-1.146-0.733-1.595-1.258c-0.45-0.523-0.675-1.218-0.675-2.083c0-0.995,0.266-1.866,0.797-2.613
		s1.186-1.376,1.963-1.887c0.777-0.511,1.602-0.896,2.475-1.159c0.872-0.262,1.649-0.393,2.331-0.393
		c0.354,0,0.736,0.046,1.146,0.138c0.409,0.092,0.791,0.249,1.145,0.471c0.354,0.224,0.647,0.519,0.879,0.885
		c0.231,0.367,0.348,0.839,0.348,1.415s-0.048,1.041-0.143,1.395c-0.096,0.354-0.232,0.629-0.409,0.825
		c-0.178,0.197-0.389,0.321-0.634,0.374c-0.246,0.053-0.532,0.078-0.859,0.078c-0.219,0-0.423-0.025-0.614-0.078
		c-0.164-0.053-0.341-0.104-0.532-0.157c-0.191-0.053-0.368-0.144-0.532-0.275c0.272-0.314,0.484-0.615,0.634-0.903
		c0.149-0.288,0.225-0.643,0.225-1.062c0-0.366-0.103-0.694-0.307-0.982s-0.539-0.433-1.002-0.433c-0.491,0-0.961,0.093-1.411,0.275
		c-0.45,0.184-0.845,0.433-1.186,0.747c-0.341,0.313-0.614,0.675-0.818,1.08C5.502,50.693,5.4,51.132,5.4,51.604
		c0,0.708,0.279,1.376,0.839,2.005C6.797,54.237,7.676,54.774,8.876,55.22z"/>
	<path fill="#303336" d="M31.127,45.198c-0.3-0.053-0.702-0.104-1.207-0.157c-0.505-0.053-1.016-0.092-1.534-0.118
		c-0.6-0.025-1.241-0.039-1.922-0.039c-0.682-0.053-1.534-0.06-2.556-0.02c-1.022,0.039-2.093,0.059-3.211,0.059
		c-0.027,0.682-0.075,1.376-0.143,2.083c-0.068,0.707-0.13,1.401-0.184,2.083c-0.137,1.258-0.252,2.541-0.348,3.852
		c-0.096,1.311-0.143,2.554-0.143,3.733c0,1.179,0.075,2.247,0.225,3.203c0.149,0.956,0.429,1.709,0.838,2.26
		c-0.327,0.235-0.682,0.412-1.063,0.53c-0.382,0.118-0.723,0.202-1.022,0.255c-0.355,0.079-0.709,0.118-1.063,0.118
		c-0.327,0-0.6-0.104-0.818-0.314c-0.218-0.209-0.341-0.576-0.368-1.101c-0.055-0.89-0.062-1.788-0.021-2.691
		c0.041-0.904,0.095-1.854,0.164-2.85c0.067-0.995,0.143-2.063,0.225-3.203c0.082-1.14,0.164-2.391,0.246-3.753
		c0.082-1.415,0.123-2.79,0.123-4.127c-1.037,0.027-1.909,0.04-2.618,0.04c-0.708,0-1.104-0.013-1.186-0.04
		c-0.082-0.052-0.177-0.17-0.286-0.354c-0.109-0.157-0.252-0.393-0.43-0.707c-0.177-0.314-0.402-0.76-0.675-1.336
		c0.519,0,1.084,0,1.697,0c0.614,0,1.179-0.014,1.698-0.04c0.599-0.025,1.199-0.052,1.799-0.078
		c-0.027-0.419-0.041-0.864-0.041-1.336c-0.028-0.367-0.041-0.78-0.041-1.238s-0.014-0.884-0.041-1.277
		c0-0.157,0.197-0.347,0.593-0.569c0.395-0.223,0.824-0.426,1.288-0.609c0.463-0.183,0.893-0.301,1.289-0.354
		c0.395-0.053,0.593,0.039,0.593,0.274c0,0.236-0.007,0.806-0.02,1.71c-0.014,0.904-0.048,1.998-0.103,3.281
		c0.272,0,0.477-0.013,0.614-0.039c1.445-0.053,2.61-0.111,3.497-0.177c0.886-0.065,1.615-0.072,2.188-0.02s1.077,0.184,1.513,0.393
		c0.436,0.21,0.927,0.551,1.473,1.021c0.19,0.157,0.354,0.328,0.491,0.512c0.136,0.157,0.252,0.334,0.348,0.53
		C31.079,44.785,31.127,44.988,31.127,45.198z"/>
	<path fill="#303336" d="M36.076,60.683c0.055,0.184,0.137,0.354,0.246,0.511c0.08,0.131,0.197,0.255,0.348,0.373
		c0.148,0.118,0.332,0.19,0.551,0.216c-0.191,0.367-0.381,0.616-0.572,0.747c-0.109,0.079-0.205,0.132-0.285,0.157
		c-0.246,0.078-0.615,0.118-1.105,0.118c-0.491,0-0.968-0.144-1.432-0.433c-0.164-0.131-0.314-0.327-0.45-0.59
		c-0.137-0.209-0.252-0.504-0.348-0.884c-0.096-0.38-0.17-0.871-0.225-1.474c-0.382,0.786-0.812,1.408-1.288,1.866
		c-0.478,0.459-0.948,0.793-1.411,1.003c-0.519,0.288-1.05,0.458-1.595,0.511c-0.682,0.052-1.329-0.06-1.943-0.334
		c-0.613-0.275-1.132-0.694-1.554-1.258c-0.423-0.563-0.743-1.251-0.961-2.063c-0.219-0.812-0.287-1.729-0.205-2.751
		c0.082-1.074,0.3-2.03,0.654-2.869c0.354-0.838,0.777-1.585,1.268-2.24c0.491-0.654,1.008-1.211,1.554-1.67
		c0.545-0.458,1.07-0.838,1.575-1.14c0.504-0.301,0.94-0.523,1.309-0.668c0.368-0.144,0.606-0.229,0.716-0.256
		c0.3-0.078,0.559-0.104,0.777-0.078c0.218,0.026,0.409,0.145,0.573,0.354c0.054,0.078,0.123,0.171,0.204,0.275
		c0.055,0.104,0.123,0.242,0.205,0.412c0.082,0.171,0.149,0.36,0.205,0.57c-0.654,0.288-1.268,0.609-1.84,0.963
		c-0.573,0.354-1.098,0.779-1.575,1.277c-0.478,0.498-0.894,1.1-1.248,1.808c-0.355,0.707-0.628,1.572-0.818,2.594
		c-0.272,1.284-0.198,2.318,0.225,3.104c0.422,0.786,1.002,1.114,1.738,0.982c0.436-0.131,0.859-0.379,1.268-0.746
		c0.354-0.314,0.729-0.786,1.125-1.415c0.395-0.629,0.771-1.493,1.125-2.594c0.136-1.572,0.252-2.811,0.348-3.714
		c0.095-0.904,0.184-1.592,0.266-2.063c0.109-0.55,0.191-0.917,0.246-1.101c0.082-0.131,0.246-0.255,0.491-0.373
		c0.246-0.118,0.517-0.216,0.818-0.295c0.3-0.078,0.573-0.124,0.818-0.138c0.246-0.013,0.41-0.006,0.492,0.02
		c0.053,0.026,0.08,0.348,0.08,0.963c0,0.616-0.02,1.39-0.061,2.319s-0.088,1.938-0.143,3.025c-0.055,1.088-0.104,2.116-0.145,3.085
		c-0.041,0.97-0.068,1.815-0.08,2.535C36,60.047,36.021,60.499,36.076,60.683z"/>
	<path fill="#303336" d="M50.678,50.621c0,0.367-0.102,0.741-0.307,1.12c-0.205,0.38-0.457,0.741-0.756,1.081
		c-0.301,0.341-0.635,0.636-1.004,0.884c-0.367,0.25-0.715,0.4-1.043,0.452c0.219-0.812,0.287-1.44,0.205-1.887
		c-0.082-0.444-0.219-0.772-0.408-0.982c-0.219-0.235-0.492-0.366-0.818-0.393c-0.49,0-0.961,0.269-1.412,0.806
		c-0.449,0.537-0.838,1.192-1.164,1.965c-0.328,0.773-0.588,1.599-0.777,2.476c-0.191,0.879-0.287,1.671-0.287,2.378
		c-0.027,0.498-0.014,0.982,0.041,1.454c0.027,0.394,0.074,0.8,0.143,1.219s0.17,0.746,0.307,0.982
		c-0.162,0.131-0.428,0.288-0.797,0.472c-0.367,0.183-0.75,0.301-1.145,0.354c-0.396,0.052-0.75-0.014-1.064-0.196
		c-0.313-0.184-0.484-0.576-0.512-1.18c-0.055-0.575-0.088-1.224-0.102-1.945c-0.014-0.72-0.014-1.44,0-2.161
		s0.033-1.435,0.063-2.142c0.025-0.708,0.066-1.362,0.121-1.965c0.055-1.153,0.082-2.044,0.082-2.673s-0.014-1.231-0.041-1.808
		c0-0.104,0.186-0.256,0.553-0.452s0.777-0.373,1.227-0.53c0.451-0.157,0.865-0.249,1.248-0.275
		c0.381-0.025,0.572,0.053,0.572,0.235c0,0.289-0.035,0.859-0.102,1.71c-0.068,0.852-0.158,1.736-0.266,2.652
		c0.189-0.497,0.441-1.034,0.756-1.61c0.313-0.576,0.676-1.114,1.084-1.611c0.408-0.498,0.873-0.91,1.391-1.238
		c0.518-0.327,1.09-0.491,1.719-0.491c0.49,0,0.893,0.145,1.205,0.433c0.314,0.288,0.566,0.615,0.758,0.982
		c0.189,0.367,0.326,0.733,0.408,1.1C50.637,50.202,50.678,50.464,50.678,50.621z"/>
	<path fill="#303336" d="M67.365,45.198c-0.301-0.053-0.703-0.104-1.207-0.157s-1.016-0.092-1.533-0.118
		c-0.6-0.025-1.242-0.039-1.922-0.039c-0.684-0.053-1.535-0.06-2.557-0.02c-1.023,0.039-2.094,0.059-3.211,0.059
		c-0.027,0.682-0.076,1.376-0.145,2.083s-0.129,1.401-0.184,2.083c-0.137,1.258-0.252,2.541-0.348,3.852s-0.143,2.554-0.143,3.733
		c0,1.179,0.074,2.247,0.225,3.203s0.43,1.709,0.838,2.26c-0.326,0.235-0.682,0.412-1.063,0.53
		c-0.383,0.118-0.723,0.202-1.023,0.255c-0.354,0.079-0.709,0.118-1.063,0.118c-0.328,0-0.6-0.104-0.818-0.314
		c-0.219-0.209-0.342-0.576-0.367-1.101c-0.055-0.89-0.063-1.788-0.021-2.691c0.041-0.904,0.096-1.854,0.164-2.85
		c0.068-0.995,0.143-2.063,0.225-3.203s0.164-2.391,0.246-3.753c0.082-1.415,0.123-2.79,0.123-4.127
		c-1.037,0.027-1.91,0.04-2.619,0.04s-1.104-0.013-1.186-0.04c-0.082-0.052-0.178-0.17-0.287-0.354
		c-0.107-0.157-0.25-0.393-0.428-0.707s-0.402-0.76-0.676-1.336c0.518,0,1.084,0,1.697,0s1.18-0.014,1.697-0.04
		c0.6-0.025,1.199-0.052,1.801-0.078c-0.027-0.419-0.041-0.864-0.041-1.336c-0.027-0.367-0.041-0.78-0.041-1.238
		s-0.014-0.884-0.041-1.277c0-0.157,0.197-0.347,0.592-0.569c0.396-0.223,0.826-0.426,1.289-0.609
		c0.463-0.183,0.893-0.301,1.289-0.354c0.395-0.053,0.592,0.039,0.592,0.274c0,0.236-0.006,0.806-0.02,1.71
		s-0.049,1.998-0.102,3.281c0.271,0,0.477-0.013,0.613-0.039c1.443-0.053,2.609-0.111,3.496-0.177s1.615-0.072,2.189-0.02
		c0.572,0.053,1.076,0.184,1.512,0.393c0.436,0.21,0.928,0.551,1.473,1.021c0.191,0.157,0.355,0.328,0.492,0.512
		c0.135,0.157,0.25,0.334,0.348,0.53C67.316,44.785,67.365,44.988,67.365,45.198z"/>
	<path fill="#303336" d="M61.475,59.582c-0.189-1.44-0.348-2.764-0.469-3.97c-0.123-1.205-0.213-2.227-0.266-3.065
		c-0.082-0.995-0.139-1.886-0.164-2.672c-0.082-0.97-0.15-1.952-0.205-2.948c-0.055-0.995-0.088-1.951-0.102-2.868
		c-0.016-0.917-0.016-1.788,0-2.614c0.014-0.824,0.033-1.552,0.061-2.181s0.279-1.133,0.758-1.513
		c0.477-0.38,0.994-0.654,1.553-0.825c0.559-0.17,1.078-0.249,1.555-0.236c0.477,0.014,0.717,0.099,0.717,0.256
		c0.025,0.629,0.033,1.448,0.02,2.456c-0.014,1.009-0.035,1.998-0.061,2.967c-0.027,1.127-0.068,2.306-0.123,3.537
		c-0.055,1.284-0.137,2.659-0.246,4.127c-0.082,1.257-0.178,2.711-0.285,4.362c-0.109,1.65-0.246,3.406-0.41,5.266
		c-0.109,0.132-0.225,0.229-0.348,0.295s-0.238,0.125-0.348,0.177c-0.137,0.053-0.273,0.079-0.408,0.079
		c-0.164,0-0.314-0.026-0.451-0.079C61.953,60.027,61.693,59.844,61.475,59.582z M63.848,61.39c0.518,0,0.955,0.145,1.309,0.433
		s0.531,0.694,0.531,1.218c0,0.314-0.068,0.648-0.203,1.002c-0.137,0.354-0.348,0.682-0.635,0.982
		c-0.285,0.302-0.648,0.551-1.084,0.747s-0.969,0.295-1.596,0.295c-0.545,0-0.961-0.157-1.246-0.472
		c-0.287-0.314-0.43-0.707-0.43-1.179c0-0.786,0.32-1.487,0.961-2.103S62.893,61.39,63.848,61.39z"/>
</g>
</svg>
