<?xml version="1.0" encoding="utf-8"?>
<!-- Generator: Adobe Illustrator 16.0.0, SVG Export Plug-In . SVG Version: 6.00 Build 0)  -->
<!DOCTYPE svg PUBLIC "-//W3C//DTD SVG 1.1//EN" "http://www.w3.org/Graphics/SVG/1.1/DTD/svg11.dtd">
<svg version="1.1" id="Layer_1" xmlns="http://www.w3.org/2000/svg" xmlns:xlink="http://www.w3.org/1999/xlink" x="0px" y="0px"
	 width="161px" height="77px" viewBox="0 0 161 77" enable-background="new 0 0 161 77" xml:space="preserve">
<g>
	<path fill="#303336" d="M54.825,25.744c0.102-0.304,0.197-0.811,0.287-1.522c0.089-0.711,0.159-1.429,0.21-2.152
		c0.077-0.84,0.14-1.75,0.191-2.73c0.077-0.723,0.14-1.633,0.191-2.729c0.051-1.096,0.089-2.263,0.115-3.5s0.039-2.49,0.039-3.762
		c0-1.271-0.013-2.456-0.039-3.552s-0.07-2.042-0.134-2.835c-0.064-0.793-0.147-1.33-0.249-1.61c0.484-0.256,0.918-0.443,1.301-0.56
		c0.383-0.116,0.714-0.198,0.995-0.245c0.306-0.07,0.587-0.093,0.842-0.07c0.204,0.024,0.408,0.059,0.612,0.105
		c0.178,0.047,0.345,0.111,0.498,0.193c0.153,0.082,0.268,0.192,0.345,0.333c-0.052,1.47-0.109,2.945-0.172,4.427
		c-0.064,1.482-0.134,2.841-0.21,4.077c-0.103,1.447-0.205,2.835-0.306,4.165c-0.077,1.4-0.147,2.607-0.21,3.623
		c-0.064,1.015-0.122,1.902-0.172,2.66c-0.052,0.758-0.09,1.435-0.115,2.03c-0.026,0.595-0.039,1.184-0.039,1.767
		c0.612-0.116,1.34-0.25,2.182-0.402c0.842-0.151,1.799-0.309,2.871-0.473c1.021-0.14,1.875-0.18,2.565-0.122
		c0.689,0.058,1.237,0.198,1.646,0.42c0.408,0.222,0.689,0.502,0.842,0.84c0.153,0.338,0.217,0.717,0.191,1.137
		c-0.051,0.467-0.09,0.828-0.115,1.085c-0.026,0.256-0.038,0.455-0.038,0.595c-0.281-0.164-0.664-0.28-1.148-0.35
		c-0.485-0.07-0.97-0.128-1.455-0.175c-0.562-0.047-1.148-0.058-1.761-0.035c-0.664,0.023-1.391,0.07-2.182,0.14
		c-0.664,0.047-1.442,0.117-2.335,0.21c-0.894,0.093-1.825,0.233-2.794,0.42c-0.689-0.444-1.263-0.793-1.722-1.05
		C55.271,25.954,55.029,25.836,54.825,25.744z"/>
	<path fill="#303336" d="M74.5,24.378c-1.786,0-3.165-0.548-4.134-1.645c-0.97-1.097-1.455-2.531-1.455-4.305
		c0-1.236,0.197-2.397,0.593-3.482c0.396-1.084,0.925-2.023,1.588-2.817c0.664-0.793,1.436-1.417,2.316-1.873
		s1.805-0.682,2.775-0.682c0.944,0,1.748,0.309,2.412,0.927c0.663,0.618,0.995,1.5,0.995,2.642c0,0.747-0.179,1.487-0.536,2.222
		c-0.357,0.735-0.823,1.389-1.397,1.96c-0.574,0.572-1.206,1.033-1.895,1.382c-0.689,0.35-1.353,0.525-1.99,0.525
		c-0.409,0-0.753-0.046-1.034-0.14s-0.536-0.233-0.766-0.42c0.077,1.33,0.396,2.257,0.957,2.782
		c0.561,0.525,1.289,0.787,2.182,0.787c0.612,0,1.154-0.116,1.626-0.35c0.472-0.233,0.874-0.501,1.206-0.805
		c0.331-0.303,0.599-0.612,0.804-0.927c0.204-0.315,0.345-0.554,0.421-0.718c0.077-0.14,0.211-0.21,0.402-0.21
		s0.287,0.14,0.287,0.42c0,0.257-0.096,0.647-0.287,1.173c-0.191,0.525-0.504,1.05-0.938,1.575
		c-0.434,0.525-0.989,0.986-1.665,1.382C76.292,24.18,75.47,24.378,74.5,24.378z M76.261,11.08c-0.153,0-0.44,0.146-0.861,0.438
		c-0.421,0.292-0.868,0.718-1.34,1.277c-0.473,0.56-0.906,1.231-1.302,2.013s-0.645,1.662-0.746,2.642
		c1.531-0.327,2.743-0.84,3.636-1.54c0.893-0.7,1.34-1.726,1.34-3.08c0-0.676-0.09-1.137-0.268-1.382
		C76.542,11.202,76.388,11.08,76.261,11.08z"/>
	<path fill="#303336" d="M96.472,8.42c-0.281-0.046-0.657-0.093-1.129-0.14c-0.473-0.047-0.951-0.082-1.436-0.105
		c-0.562-0.023-1.161-0.035-1.799-0.035c-0.639-0.046-1.436-0.053-2.393-0.018s-1.959,0.053-3.005,0.053
		c-0.025,0.607-0.07,1.225-0.134,1.854c-0.064,0.63-0.121,1.249-0.172,1.855c-0.129,1.12-0.236,2.263-0.326,3.43
		c-0.089,1.167-0.134,2.275-0.134,3.325s0.07,2.001,0.211,2.852c0.14,0.852,0.401,1.522,0.784,2.013
		c-0.306,0.21-0.638,0.367-0.995,0.472s-0.676,0.181-0.957,0.228c-0.332,0.07-0.664,0.105-0.995,0.105
		c-0.306,0-0.562-0.093-0.766-0.28s-0.319-0.513-0.345-0.98c-0.051-0.793-0.057-1.592-0.019-2.397
		c0.038-0.805,0.089-1.65,0.153-2.537c0.063-0.886,0.134-1.837,0.21-2.853c0.077-1.015,0.153-2.128,0.229-3.342
		c0.077-1.26,0.115-2.485,0.115-3.675c-0.97,0.023-1.787,0.035-2.449,0.035c-0.664,0-1.034-0.012-1.111-0.035
		c-0.076-0.046-0.166-0.151-0.268-0.315c-0.102-0.14-0.236-0.35-0.402-0.63c-0.166-0.28-0.376-0.677-0.631-1.19
		c0.485,0,1.014,0,1.588,0s1.103-0.012,1.588-0.035c0.562-0.023,1.123-0.046,1.685-0.07c-0.025-0.373-0.038-0.77-0.038-1.19
		c-0.026-0.327-0.038-0.694-0.038-1.103c0-0.408-0.014-0.787-0.039-1.137c0-0.14,0.186-0.309,0.556-0.507
		c0.369-0.198,0.771-0.379,1.205-0.542s0.836-0.268,1.206-0.315s0.556,0.035,0.556,0.245s-0.007,0.718-0.02,1.522
		c-0.014,0.805-0.045,1.779-0.096,2.922c0.255,0,0.446-0.012,0.574-0.035c1.353-0.046,2.443-0.099,3.272-0.157
		s1.512-0.064,2.048-0.018c0.536,0.047,1.008,0.164,1.417,0.35c0.407,0.187,0.867,0.49,1.378,0.91
		c0.178,0.14,0.331,0.292,0.459,0.455c0.127,0.14,0.235,0.297,0.325,0.472C96.427,8.053,96.472,8.233,96.472,8.42z"/>
	<path fill="#303336" d="M92.645,0.826c0.51,0.21,0.963,0.507,1.358,0.893c0.396,0.385,0.58,0.869,0.556,1.452
		c-0.026,0.28-0.18,0.718-0.46,1.313c-0.281,0.595-0.593,1.196-0.938,1.802c-0.345,0.607-0.664,1.155-0.957,1.645
		c-0.294,0.49-0.466,0.782-0.517,0.875c-0.103,0.164-0.319,0.292-0.651,0.385c-0.331,0.094-0.676,0.035-1.033-0.175
		c-0.128-0.07-0.243-0.151-0.345-0.245c-0.102-0.093-0.191-0.192-0.268-0.297s-0.141-0.25-0.191-0.438
		c0.383-1.26,0.689-2.245,0.919-2.958c0.229-0.711,0.407-1.265,0.535-1.662c0.128-0.443,0.217-0.747,0.269-0.91
		c0.102-0.303,0.165-0.6,0.191-0.892c0.025-0.292-0.014-0.601-0.115-0.928c0.307-0.116,0.663-0.128,1.072-0.035
		C92.274,0.698,92.466,0.756,92.645,0.826z"/>
	<path fill="#303336" d="M102.213,17.344c0.562,0.187,1.098,0.362,1.608,0.525c0.51,0.164,0.957,0.362,1.34,0.595
		c0.383,0.233,0.688,0.507,0.918,0.822s0.345,0.706,0.345,1.172c0,0.56-0.134,1.085-0.401,1.575
		c-0.269,0.49-0.658,0.922-1.168,1.295c-0.511,0.374-1.129,0.67-1.856,0.893c-0.728,0.221-1.538,0.333-2.431,0.333
		c-0.995,0-1.799-0.087-2.411-0.263c-0.613-0.175-1.085-0.379-1.417-0.612c-0.332-0.233-0.549-0.466-0.65-0.7
		c-0.103-0.233-0.153-0.42-0.153-0.56c0-0.28,0.063-0.589,0.191-0.928c0.128-0.338,0.37-0.705,0.728-1.102
		c0.153-0.163,0.318-0.315,0.497-0.455c0.357-0.28,0.715-0.455,1.072-0.525c-0.052,0.537,0.02,0.974,0.211,1.313
		c0.19,0.338,0.445,0.601,0.765,0.787c0.319,0.187,0.677,0.315,1.072,0.385c0.396,0.07,0.771,0.105,1.129,0.105
		s0.721-0.047,1.091-0.14c0.37-0.093,0.709-0.215,1.015-0.368c0.307-0.151,0.555-0.326,0.746-0.525
		c0.191-0.198,0.287-0.414,0.287-0.647c0-0.256-0.114-0.466-0.344-0.63c-0.23-0.163-0.518-0.297-0.861-0.402
		c-0.345-0.105-0.715-0.187-1.11-0.245c-0.396-0.058-0.772-0.123-1.129-0.192c-0.358-0.07-0.837-0.169-1.436-0.297
		c-0.6-0.128-1.187-0.333-1.761-0.613c-0.574-0.28-1.072-0.653-1.493-1.12c-0.421-0.466-0.632-1.085-0.632-1.855
		c0-0.886,0.249-1.662,0.747-2.327c0.497-0.665,1.109-1.225,1.837-1.68c0.728-0.455,1.499-0.799,2.316-1.033
		c0.816-0.233,1.543-0.35,2.182-0.35c0.331,0,0.688,0.041,1.071,0.122c0.383,0.082,0.74,0.222,1.072,0.42
		c0.331,0.199,0.605,0.461,0.823,0.788c0.216,0.327,0.325,0.747,0.325,1.26c0,0.514-0.045,0.928-0.135,1.243
		c-0.089,0.315-0.217,0.56-0.382,0.735c-0.167,0.175-0.364,0.286-0.594,0.333c-0.229,0.047-0.498,0.07-0.804,0.07
		c-0.205,0-0.396-0.023-0.574-0.07c-0.153-0.046-0.319-0.093-0.498-0.14c-0.179-0.046-0.344-0.128-0.497-0.245
		c0.255-0.28,0.452-0.548,0.593-0.805c0.141-0.256,0.211-0.571,0.211-0.945c0-0.327-0.096-0.618-0.287-0.875
		c-0.191-0.256-0.504-0.385-0.938-0.385c-0.46,0-0.9,0.082-1.321,0.245c-0.421,0.164-0.791,0.385-1.109,0.665
		c-0.319,0.28-0.574,0.601-0.766,0.962c-0.191,0.362-0.287,0.752-0.287,1.172c0,0.63,0.261,1.225,0.784,1.785
		C100.267,16.469,101.09,16.948,102.213,17.344z"/>
	<path fill="#303336" d="M7.743,60.664c-0.434,0.326-0.67,0.904-0.708,1.731c-0.039,0.829,0.115,1.669,0.459,2.521
		c0.344,0.852,0.874,1.604,1.588,2.257c0.714,0.653,1.607,0.98,2.68,0.98c0.689,0,1.282-0.152,1.78-0.455
		c0.498-0.304,0.905-0.683,1.225-1.138c0.319-0.455,0.555-0.962,0.708-1.522c0.153-0.56,0.229-1.107,0.229-1.645
		c0-0.771-0.16-1.411-0.479-1.925c-0.319-0.513-0.74-0.963-1.263-1.348c-0.523-0.385-1.123-0.711-1.799-0.979
		c-0.677-0.269-1.359-0.543-2.048-0.823c-0.638-0.232-1.404-0.53-2.297-0.892c-0.894-0.361-1.748-0.84-2.564-1.436
		c-0.817-0.595-1.512-1.329-2.086-2.204s-0.861-1.954-0.861-3.237c0-0.84,0.242-1.691,0.728-2.555
		c0.484-0.863,1.173-1.65,2.067-2.362c0.893-0.712,1.971-1.289,3.234-1.732s2.686-0.665,4.268-0.665c1.556,0,2.819,0.128,3.79,0.385
		c0.97,0.257,1.723,0.59,2.258,0.997c0.536,0.409,0.9,0.853,1.091,1.33c0.191,0.479,0.287,0.928,0.287,1.348
		s-0.141,0.846-0.421,1.277s-0.612,0.828-0.995,1.189c-0.383,0.362-0.779,0.678-1.187,0.945c-0.409,0.269-0.741,0.449-0.995,0.542
		c0.127-0.303,0.254-0.723,0.382-1.26c0.127-0.536,0.096-1.072-0.095-1.609c-0.191-0.536-0.638-1.003-1.34-1.4
		c-0.702-0.396-1.832-0.595-3.388-0.595c-0.894,0-1.761,0.129-2.603,0.385c-0.842,0.258-1.588,0.59-2.239,0.998
		s-1.167,0.869-1.55,1.382c-0.383,0.514-0.574,1.039-0.574,1.575c0,0.514,0.197,0.986,0.593,1.417
		c0.396,0.433,0.931,0.84,1.608,1.226c0.676,0.385,1.455,0.764,2.335,1.137c0.88,0.374,1.805,0.747,2.775,1.12
		c0.944,0.374,1.876,0.776,2.794,1.207c0.919,0.433,1.742,0.928,2.469,1.487c0.727,0.561,1.307,1.19,1.741,1.891
		c0.434,0.699,0.651,1.505,0.651,2.414c0,0.98-0.198,1.92-0.593,2.817c-0.396,0.898-0.957,1.686-1.684,2.362
		c-0.728,0.677-1.614,1.219-2.661,1.628c-1.046,0.407-2.233,0.612-3.56,0.612c-1.174,0-2.284-0.175-3.331-0.525
		c-1.046-0.35-1.958-0.805-2.737-1.364c-0.778-0.561-1.397-1.179-1.856-1.855c-0.459-0.676-0.689-1.341-0.689-1.994
		c0-0.7,0.172-1.295,0.517-1.785c0.345-0.49,0.772-0.881,1.283-1.173c0.51-0.291,1.04-0.495,1.588-0.612
		C6.818,60.617,7.309,60.594,7.743,60.664z"/>
	<path fill="#303336" d="M36.835,51.425c-0.281-0.047-0.657-0.094-1.129-0.141c-0.473-0.046-0.951-0.081-1.436-0.104
		c-0.562-0.023-1.161-0.035-1.799-0.035c-0.638-0.047-1.436-0.053-2.393-0.018s-1.958,0.053-3.005,0.053
		c-0.025,0.606-0.07,1.225-0.134,1.854c-0.064,0.63-0.122,1.249-0.172,1.854c-0.128,1.12-0.236,2.264-0.325,3.43
		c-0.09,1.167-0.134,2.275-0.134,3.325s0.07,2.001,0.211,2.853c0.14,0.852,0.402,1.522,0.785,2.012
		c-0.307,0.21-0.638,0.368-0.996,0.473c-0.357,0.105-0.676,0.181-0.957,0.228c-0.332,0.07-0.664,0.105-0.996,0.105
		c-0.306,0-0.562-0.094-0.766-0.28s-0.319-0.513-0.344-0.98c-0.051-0.793-0.058-1.592-0.019-2.396
		c0.038-0.806,0.089-1.65,0.153-2.538c0.063-0.886,0.134-1.837,0.21-2.852c0.077-1.016,0.153-2.129,0.23-3.343
		c0.077-1.26,0.115-2.484,0.115-3.675c-0.97,0.024-1.787,0.035-2.45,0.035c-0.664,0-1.034-0.011-1.11-0.035
		c-0.076-0.046-0.166-0.151-0.268-0.314c-0.102-0.14-0.236-0.35-0.402-0.63c-0.166-0.28-0.376-0.677-0.631-1.19
		c0.485,0,1.014,0,1.588,0s1.104-0.011,1.589-0.034c0.561-0.023,1.123-0.047,1.684-0.07c-0.026-0.373-0.038-0.77-0.038-1.19
		c-0.026-0.326-0.039-0.693-0.039-1.102s-0.013-0.788-0.038-1.138c0-0.14,0.185-0.309,0.555-0.508
		c0.37-0.197,0.772-0.379,1.206-0.542c0.434-0.163,0.835-0.269,1.206-0.315c0.37-0.046,0.555,0.035,0.555,0.245
		s-0.006,0.718-0.019,1.522c-0.013,0.805-0.045,1.779-0.096,2.922c0.255,0,0.446-0.011,0.574-0.034
		c1.352-0.047,2.443-0.1,3.272-0.158c0.829-0.058,1.512-0.063,2.048-0.018c0.536,0.048,1.008,0.164,1.417,0.351
		c0.408,0.187,0.867,0.489,1.378,0.91c0.178,0.14,0.332,0.292,0.459,0.454c0.127,0.141,0.236,0.298,0.325,0.473
		S36.835,51.238,36.835,51.425z"/>
	<path fill="#303336" d="M41.466,65.213c0.051,0.164,0.127,0.315,0.23,0.455c0.077,0.117,0.185,0.228,0.325,0.333
		c0.14,0.104,0.313,0.169,0.517,0.192c-0.179,0.327-0.357,0.548-0.536,0.665c-0.103,0.069-0.191,0.116-0.268,0.14
		c-0.229,0.07-0.574,0.105-1.033,0.105c-0.459,0-0.906-0.129-1.34-0.386c-0.153-0.116-0.294-0.291-0.421-0.524
		c-0.128-0.187-0.236-0.449-0.325-0.788c-0.09-0.338-0.16-0.775-0.21-1.312c-0.358,0.699-0.76,1.254-1.206,1.662
		c-0.447,0.408-0.887,0.706-1.321,0.893c-0.485,0.257-0.983,0.407-1.493,0.455c-0.638,0.046-1.244-0.053-1.818-0.298
		s-1.059-0.618-1.455-1.12c-0.396-0.501-0.696-1.113-0.899-1.837c-0.205-0.724-0.268-1.54-0.191-2.45
		c0.076-0.956,0.28-1.808,0.612-2.555c0.332-0.746,0.727-1.411,1.187-1.995c0.459-0.583,0.944-1.078,1.455-1.487
		c0.51-0.407,1.001-0.746,1.474-1.015c0.472-0.268,0.88-0.467,1.225-0.595c0.344-0.128,0.567-0.204,0.67-0.228
		c0.28-0.07,0.522-0.093,0.727-0.07c0.204,0.023,0.383,0.129,0.536,0.315c0.051,0.069,0.115,0.151,0.191,0.245
		c0.051,0.093,0.115,0.216,0.191,0.367c0.077,0.152,0.14,0.321,0.191,0.507c-0.613,0.258-1.187,0.543-1.723,0.857
		c-0.536,0.315-1.027,0.695-1.474,1.138c-0.447,0.443-0.836,0.98-1.167,1.61c-0.332,0.63-0.587,1.399-0.766,2.31
		c-0.255,1.144-0.186,2.064,0.21,2.765c0.396,0.7,0.938,0.992,1.627,0.875c0.408-0.116,0.804-0.338,1.187-0.665
		c0.332-0.28,0.683-0.7,1.053-1.26c0.37-0.56,0.721-1.33,1.053-2.31c0.127-1.4,0.235-2.503,0.325-3.308
		c0.089-0.805,0.172-1.417,0.249-1.837c0.102-0.49,0.178-0.816,0.229-0.98c0.077-0.116,0.229-0.228,0.459-0.332
		c0.229-0.105,0.484-0.192,0.766-0.263c0.28-0.07,0.536-0.11,0.765-0.122c0.23-0.012,0.383-0.006,0.459,0.018
		c0.051,0.023,0.077,0.309,0.077,0.857c0,0.548-0.019,1.236-0.058,2.064c-0.038,0.828-0.083,1.727-0.134,2.694
		c-0.051,0.969-0.096,1.885-0.134,2.747c-0.039,0.864-0.064,1.616-0.077,2.258C41.396,64.647,41.415,65.05,41.466,65.213z"/>
	<path fill="#303336" d="M55.131,56.254c0,0.327-0.096,0.659-0.287,0.997c-0.191,0.339-0.427,0.66-0.708,0.963
		c-0.281,0.304-0.593,0.566-0.938,0.787c-0.344,0.223-0.669,0.356-0.976,0.402c0.204-0.723,0.268-1.282,0.191-1.68
		c-0.076-0.396-0.205-0.688-0.383-0.875c-0.204-0.21-0.459-0.326-0.765-0.35c-0.459,0-0.9,0.239-1.321,0.718
		s-0.785,1.062-1.091,1.749c-0.306,0.688-0.549,1.424-0.728,2.205c-0.179,0.782-0.268,1.487-0.268,2.117
		c-0.026,0.443-0.013,0.875,0.038,1.295c0.025,0.351,0.07,0.712,0.134,1.085c0.063,0.374,0.159,0.665,0.287,0.875
		c-0.153,0.117-0.402,0.257-0.746,0.42c-0.345,0.163-0.702,0.269-1.072,0.315c-0.371,0.046-0.703-0.013-0.996-0.175
		c-0.293-0.163-0.453-0.514-0.479-1.051c-0.051-0.513-0.083-1.09-0.096-1.732c-0.013-0.641-0.013-1.282,0-1.925
		c0.013-0.641,0.032-1.277,0.058-1.907c0.025-0.63,0.063-1.213,0.115-1.749c0.051-1.026,0.077-1.82,0.077-2.38
		c0-0.561-0.013-1.097-0.038-1.61c0-0.093,0.172-0.228,0.517-0.402c0.344-0.175,0.727-0.332,1.148-0.473
		c0.421-0.14,0.81-0.222,1.167-0.245c0.357-0.022,0.536,0.048,0.536,0.21c0,0.258-0.032,0.765-0.096,1.522
		c-0.064,0.759-0.147,1.546-0.249,2.362c0.178-0.442,0.415-0.921,0.708-1.435c0.293-0.513,0.631-0.991,1.014-1.435
		s0.816-0.811,1.302-1.103c0.484-0.292,1.02-0.438,1.607-0.438c0.459,0,0.835,0.128,1.129,0.385
		c0.293,0.257,0.529,0.549,0.708,0.875c0.178,0.327,0.306,0.653,0.383,0.979C55.093,55.881,55.131,56.114,55.131,56.254z"/>
	<path fill="#303336" d="M70.75,51.425c-0.281-0.047-0.657-0.094-1.129-0.141c-0.473-0.046-0.951-0.081-1.436-0.104
		c-0.562-0.023-1.161-0.035-1.799-0.035c-0.638-0.047-1.436-0.053-2.393-0.018s-1.958,0.053-3.005,0.053
		c-0.025,0.606-0.07,1.225-0.134,1.854c-0.064,0.63-0.122,1.249-0.172,1.854c-0.128,1.12-0.236,2.264-0.325,3.43
		c-0.09,1.167-0.134,2.275-0.134,3.325s0.07,2.001,0.211,2.853c0.14,0.852,0.402,1.522,0.785,2.012
		c-0.307,0.21-0.638,0.368-0.996,0.473c-0.357,0.105-0.676,0.181-0.957,0.228c-0.332,0.07-0.664,0.105-0.996,0.105
		c-0.306,0-0.562-0.094-0.766-0.28s-0.319-0.513-0.344-0.98c-0.051-0.793-0.058-1.592-0.019-2.396
		c0.038-0.806,0.089-1.65,0.153-2.538c0.063-0.886,0.134-1.837,0.21-2.852c0.077-1.016,0.153-2.129,0.23-3.343
		c0.077-1.26,0.115-2.484,0.115-3.675c-0.97,0.024-1.787,0.035-2.45,0.035c-0.664,0-1.034-0.011-1.11-0.035
		c-0.076-0.046-0.166-0.151-0.268-0.314c-0.102-0.14-0.236-0.35-0.402-0.63c-0.166-0.28-0.376-0.677-0.631-1.19
		c0.485,0,1.014,0,1.588,0s1.104-0.011,1.589-0.034c0.561-0.023,1.123-0.047,1.684-0.07c-0.026-0.373-0.038-0.77-0.038-1.19
		c-0.026-0.326-0.039-0.693-0.039-1.102s-0.013-0.788-0.038-1.138c0-0.14,0.185-0.309,0.555-0.508
		c0.37-0.197,0.772-0.379,1.206-0.542c0.434-0.163,0.835-0.269,1.206-0.315c0.37-0.046,0.555,0.035,0.555,0.245
		s-0.006,0.718-0.019,1.522c-0.013,0.805-0.045,1.779-0.096,2.922c0.255,0,0.446-0.011,0.574-0.034
		c1.352-0.047,2.443-0.1,3.272-0.158c0.829-0.058,1.512-0.063,2.048-0.018c0.536,0.048,1.008,0.164,1.417,0.351
		c0.408,0.187,0.867,0.489,1.378,0.91c0.178,0.14,0.332,0.292,0.459,0.454c0.127,0.141,0.236,0.298,0.325,0.473
		S70.75,51.238,70.75,51.425z"/>
	<path fill="#303336" d="M66.462,63.358c0.484,0,0.886,0.129,1.206,0.385c0.319,0.257,0.479,0.618,0.479,1.085
		c0,0.28-0.058,0.572-0.172,0.875c-0.115,0.304-0.306,0.59-0.574,0.857c-0.268,0.269-0.612,0.49-1.033,0.665
		c-0.421,0.175-0.925,0.263-1.512,0.263c-0.511,0-0.899-0.141-1.167-0.42c-0.268-0.28-0.402-0.63-0.402-1.05
		c0-0.7,0.306-1.318,0.918-1.855C64.816,63.627,65.569,63.358,66.462,63.358z"/>
	<path fill="#303336" d="M71.897,63.358c0.484,0,0.886,0.129,1.206,0.385c0.319,0.257,0.479,0.618,0.479,1.085
		c0,0.28-0.058,0.572-0.172,0.875c-0.115,0.304-0.306,0.59-0.574,0.857c-0.268,0.269-0.612,0.49-1.033,0.665
		c-0.421,0.175-0.925,0.263-1.512,0.263c-0.511,0-0.899-0.141-1.167-0.42c-0.268-0.28-0.402-0.63-0.402-1.05
		c0-0.7,0.306-1.318,0.918-1.855C70.251,63.627,71.004,63.358,71.897,63.358z"/>
	<path fill="#303336" d="M103.898,68.713c-0.256,0.326-0.55,0.577-0.881,0.752c-0.332,0.176-0.65,0.298-0.957,0.368
		c-0.357,0.093-0.74,0.128-1.148,0.104c-0.152,0-0.319-0.035-0.497-0.104c-0.153-0.047-0.319-0.111-0.498-0.192
		c-0.179-0.082-0.332-0.205-0.459-0.368c-0.357-1.167-0.677-2.298-0.957-3.395c-0.281-1.096-0.523-2.076-0.728-2.939
		c-0.255-1.003-0.473-1.948-0.65-2.835c-0.689-0.022-1.717-0.029-3.082-0.018c-1.365,0.013-2.839,0.088-4.421,0.228
		c-0.484,1.4-0.867,2.578-1.148,3.535s-0.484,1.75-0.612,2.38s-0.179,1.148-0.153,1.557s0.102,0.765,0.23,1.067
		c-0.358,0.327-0.709,0.565-1.053,0.718c-0.345,0.151-0.657,0.25-0.938,0.298c-0.332,0.069-0.65,0.093-0.957,0.069
		c-0.408-0.047-0.74-0.11-0.995-0.192s-0.44-0.21-0.555-0.385c-0.115-0.175-0.153-0.426-0.115-0.753
		c0.039-0.326,0.134-0.758,0.287-1.294c0.153-0.467,0.44-1.301,0.861-2.503c0.421-1.201,0.899-2.572,1.436-4.112
		c-0.97,0.07-1.717,0.023-2.239-0.14c-0.523-0.163-0.887-0.606-1.091-1.33c0.408-0.116,0.848-0.228,1.32-0.332
		c0.472-0.105,0.925-0.204,1.359-0.298c0.484-0.093,0.981-0.175,1.492-0.245c0.536-1.539,1.085-3.056,1.646-4.549
		c0.561-1.493,1.084-2.835,1.569-4.025l2.22-5.424c0.051-0.141,0.319-0.292,0.805-0.455c0.484-0.163,1.02-0.298,1.607-0.402
		c0.587-0.105,1.148-0.158,1.684-0.158c0.536,0,0.881,0.105,1.034,0.315c0.076,0.49,0.185,1.097,0.325,1.819
		c0.14,0.724,0.273,1.424,0.402,2.101c0.152,0.793,0.331,1.609,0.535,2.449c0.229,1.167,0.479,2.462,0.747,3.885
		c0.268,1.424,0.605,2.939,1.014,4.55c0.408,1.609,0.894,3.278,1.455,5.004C102.354,65.19,103.056,66.94,103.898,68.713z
		 M93.257,57.759c0.816-0.022,1.493-0.035,2.028-0.035c0.536,0,0.995,0.013,1.378,0.035l-0.114-0.524
		c-0.153-0.863-0.313-1.785-0.479-2.766c-0.166-0.979-0.332-1.947-0.498-2.904c-0.166-0.956-0.325-1.866-0.479-2.729
		c-0.152-0.863-0.28-1.622-0.383-2.275c-0.255,0.607-0.549,1.336-0.88,2.188c-0.332,0.853-0.689,1.779-1.072,2.782
		c-0.383,1.004-0.771,2.054-1.167,3.149c-0.396,1.098-0.785,2.183-1.168,3.255c0.46-0.046,0.919-0.081,1.378-0.104
		C92.262,57.806,92.746,57.782,93.257,57.759z"/>
	<path fill="#303336" d="M109.525,67.313c-0.536,0-1.085-0.129-1.646-0.386c-0.562-0.256-1.084-0.647-1.569-1.172
		c-0.484-0.525-0.88-1.178-1.187-1.96c-0.306-0.781-0.459-1.697-0.459-2.747c0-1.54,0.217-2.817,0.65-3.832
		c0.434-1.016,0.963-1.832,1.589-2.45c0.625-0.618,1.308-1.056,2.048-1.313c0.74-0.256,1.416-0.385,2.028-0.385
		c0.638,0,1.168,0.1,1.589,0.298s0.771,0.426,1.053,0.682v-0.664c0.153-0.117,0.325-0.222,0.517-0.315
		c0.191-0.093,0.389-0.163,0.594-0.21c0.204-0.07,0.421-0.105,0.65-0.105h0.574c0.153,0.024,0.313,0.048,0.479,0.07
		c0.166,0.023,0.287,0.082,0.363,0.175c-0.152,3.057-0.28,5.53-0.383,7.42c-0.102,1.89-0.179,3.359-0.229,4.409
		c-0.076,1.237-0.128,2.135-0.153,2.695c-0.051,0.979-0.191,1.953-0.421,2.922c-0.229,0.968-0.587,1.837-1.071,2.607
		c-0.485,0.77-1.123,1.388-1.914,1.854s-1.761,0.7-2.909,0.7c-0.995,0-1.793-0.175-2.393-0.525c-0.6-0.35-1.06-0.781-1.378-1.295
		c-0.319-0.513-0.53-1.056-0.632-1.627c-0.102-0.572-0.152-1.091-0.152-1.558c0-0.117,0.069-0.292,0.21-0.524
		c0.14-0.233,0.345-0.473,0.612-0.718c0.269-0.245,0.606-0.461,1.015-0.647c0.408-0.188,0.867-0.304,1.378-0.35
		c-0.229,0.63-0.37,1.201-0.421,1.715c-0.052,0.279-0.064,0.56-0.038,0.84c0,0.77,0.165,1.411,0.497,1.925
		c0.332,0.513,0.843,0.77,1.531,0.77c0.74,0,1.34-0.286,1.799-0.857c0.46-0.572,0.811-1.26,1.053-2.064s0.408-1.646,0.498-2.52
		c0.089-0.875,0.134-1.616,0.134-2.223v-1.015c-0.153,0.257-0.339,0.524-0.555,0.805c-0.218,0.28-0.479,0.537-0.785,0.77
		c-0.306,0.233-0.67,0.426-1.091,0.578C110.578,67.237,110.086,67.313,109.525,67.313z M111.095,55.064
		c-0.435,0-0.849,0.175-1.244,0.524c-0.396,0.351-0.746,0.812-1.053,1.383c-0.306,0.571-0.549,1.219-0.728,1.942
		s-0.268,1.446-0.268,2.17c0,0.467,0.032,0.944,0.096,1.435s0.191,0.939,0.383,1.348s0.44,0.74,0.746,0.997
		c0.307,0.257,0.715,0.385,1.226,0.385c0.383-0.022,0.739-0.163,1.071-0.42c0.28-0.21,0.567-0.548,0.861-1.015
		c0.293-0.467,0.529-1.132,0.708-1.995c0.204,0.188,0.364,0.362,0.479,0.525c0.115,0.163,0.211,0.314,0.287,0.455
		c0.025-0.187,0.045-0.408,0.058-0.665s0.02-0.548,0.02-0.875c0-0.63-0.039-1.313-0.115-2.048c-0.076-0.734-0.211-1.405-0.402-2.012
		s-0.459-1.114-0.804-1.522C112.071,55.269,111.631,55.064,111.095,55.064z"/>
	<path fill="#303336" d="M130.233,65.213c0.051,0.164,0.128,0.315,0.229,0.455c0.077,0.117,0.186,0.228,0.326,0.333
		c0.14,0.104,0.312,0.169,0.517,0.192c-0.179,0.327-0.358,0.548-0.536,0.665c-0.103,0.069-0.191,0.116-0.268,0.14
		c-0.23,0.07-0.574,0.105-1.034,0.105c-0.459,0-0.906-0.129-1.34-0.386c-0.152-0.116-0.293-0.291-0.421-0.524
		c-0.128-0.187-0.236-0.449-0.325-0.788c-0.09-0.338-0.159-0.775-0.211-1.312c-0.357,0.699-0.759,1.254-1.205,1.662
		c-0.447,0.408-0.888,0.706-1.321,0.893c-0.484,0.257-0.982,0.407-1.492,0.455c-0.639,0.046-1.244-0.053-1.818-0.298
		s-1.06-0.618-1.455-1.12c-0.396-0.501-0.695-1.113-0.899-1.837s-0.268-1.54-0.191-2.45c0.077-0.956,0.281-1.808,0.612-2.555
		c0.332-0.746,0.728-1.411,1.188-1.995c0.459-0.583,0.943-1.078,1.454-1.487c0.51-0.407,1.001-0.746,1.474-1.015
		c0.472-0.268,0.881-0.467,1.225-0.595c0.345-0.128,0.568-0.204,0.67-0.228c0.281-0.07,0.523-0.093,0.728-0.07
		c0.204,0.023,0.383,0.129,0.536,0.315c0.051,0.069,0.114,0.151,0.191,0.245c0.051,0.093,0.114,0.216,0.191,0.367
		c0.076,0.152,0.14,0.321,0.191,0.507c-0.612,0.258-1.187,0.543-1.723,0.857c-0.536,0.315-1.027,0.695-1.474,1.138
		c-0.447,0.443-0.836,0.98-1.168,1.61s-0.587,1.399-0.766,2.31c-0.255,1.144-0.185,2.064,0.211,2.765s0.938,0.992,1.627,0.875
		c0.408-0.116,0.804-0.338,1.187-0.665c0.331-0.28,0.683-0.7,1.053-1.26c0.369-0.56,0.721-1.33,1.053-2.31
		c0.127-1.4,0.235-2.503,0.325-3.308c0.089-0.805,0.172-1.417,0.249-1.837c0.102-0.49,0.178-0.816,0.229-0.98
		c0.076-0.116,0.229-0.228,0.459-0.332c0.23-0.105,0.484-0.192,0.766-0.263s0.536-0.11,0.766-0.122s0.383-0.006,0.46,0.018
		c0.051,0.023,0.076,0.309,0.076,0.857c0,0.548-0.02,1.236-0.058,2.064s-0.083,1.727-0.134,2.694
		c-0.052,0.969-0.096,1.885-0.134,2.747c-0.038,0.864-0.064,1.616-0.077,2.258S130.183,65.05,130.233,65.213z"/>
	<path fill="#303336" d="M136.435,47.645c0.511,0,0.995,0.141,1.455,0.42c0.459,0.28,0.688,0.653,0.688,1.12
		c0,0.35-0.096,0.688-0.287,1.015c-0.191,0.327-0.428,0.619-0.708,0.875c-0.281,0.257-0.6,0.461-0.957,0.612
		c-0.357,0.152-0.688,0.228-0.995,0.228c-0.408,0-0.74-0.063-0.995-0.192c-0.256-0.128-0.453-0.279-0.594-0.455
		c-0.14-0.175-0.235-0.367-0.287-0.577c-0.051-0.21-0.076-0.408-0.076-0.595c0-0.233,0.038-0.495,0.115-0.787
		c0.076-0.292,0.216-0.561,0.421-0.806c0.204-0.245,0.484-0.448,0.842-0.612C135.414,47.727,135.873,47.645,136.435,47.645z
		 M133.755,54.609c0-0.141,0.204-0.292,0.613-0.455c0.407-0.163,0.861-0.298,1.358-0.402c0.498-0.105,0.957-0.163,1.378-0.175
		s0.632,0.075,0.632,0.262c0,0.351-0.025,0.847-0.076,1.487c-0.052,0.643-0.115,1.318-0.191,2.03
		c-0.077,0.712-0.153,1.424-0.23,2.135c-0.076,0.712-0.128,1.313-0.152,1.803c-0.052,0.513-0.103,1.073-0.153,1.68
		c-0.052,0.514-0.09,1.085-0.115,1.715s-0.025,1.271,0,1.925c0,0.117-0.128,0.233-0.383,0.35s-0.535,0.204-0.842,0.263
		c-0.307,0.058-0.6,0.088-0.881,0.088c-0.28,0-0.434-0.048-0.459-0.141c-0.052-0.094-0.103-0.256-0.153-0.49
		c-0.051-0.232-0.102-0.565-0.153-0.997c-0.051-0.432-0.089-0.991-0.114-1.68c-0.025-0.688-0.014-1.522,0.038-2.502
		c0.102-1.937,0.115-3.436,0.038-4.497C133.832,55.945,133.78,55.146,133.755,54.609z M135.478,50.899
		c0.153,0,0.326-0.053,0.518-0.157c0.19-0.105,0.369-0.228,0.535-0.367c0.166-0.141,0.307-0.292,0.421-0.455
		c0.115-0.163,0.173-0.304,0.173-0.42c0-0.187-0.103-0.28-0.307-0.28c-0.128,0-0.287,0.047-0.479,0.14
		c-0.191,0.094-0.377,0.205-0.555,0.333c-0.179,0.128-0.325,0.269-0.44,0.42c-0.114,0.151-0.172,0.297-0.172,0.438
		C135.172,50.783,135.273,50.899,135.478,50.899z"/>
	<path fill="#303336" d="M144.358,66.053c-0.026,0.141-0.16,0.286-0.402,0.438c-0.242,0.152-0.523,0.286-0.842,0.402
		c-0.319,0.117-0.619,0.193-0.899,0.228c-0.281,0.035-0.473,0.006-0.574-0.087c-0.103-0.093-0.269-0.269-0.498-0.525
		c-0.229-0.256-0.37-0.676-0.421-1.26c-0.052-0.606-0.076-1.37-0.076-2.292s-0.014-1.942-0.039-3.063v-1.399
		c0-0.42-0.006-0.91-0.019-1.47c-0.014-0.561-0.032-1.144-0.058-1.75c0.229-0.117,0.466-0.228,0.708-0.333
		c0.242-0.104,0.466-0.192,0.67-0.263c0.229-0.093,0.446-0.162,0.651-0.21c0.535-0.14,0.943-0.221,1.225-0.244
		c0.28-0.023,0.446,0.059,0.497,0.244c0.025,0.141,0.013,0.479-0.038,1.016c-0.051,0.467-0.114,1.172-0.191,2.117
		c-0.076,0.944-0.204,2.257-0.383,3.937c0.332-0.746,0.606-1.388,0.823-1.925c0.217-0.536,0.402-0.968,0.555-1.295
		c0.153-0.396,0.293-0.711,0.421-0.944c0.128-0.303,0.294-0.642,0.498-1.015s0.414-0.724,0.632-1.05
		c0.217-0.327,0.421-0.618,0.612-0.875s0.338-0.408,0.44-0.455c0.076-0.047,0.306-0.047,0.688,0s0.791,0.157,1.226,0.332
		c0.434,0.175,0.854,0.42,1.263,0.735c0.408,0.314,0.676,0.694,0.804,1.137c0.153,0.514,0.211,1.19,0.173,2.03
		c-0.039,0.84-0.103,1.703-0.191,2.59c-0.09,0.887-0.16,1.727-0.211,2.52c-0.052,0.794,0,1.4,0.153,1.82
		c0.051,0.233,0.127,0.443,0.229,0.63c0.051,0.187,0.121,0.355,0.211,0.507c0.089,0.152,0.185,0.263,0.287,0.333
		c-0.613,0.257-1.11,0.442-1.493,0.56c-0.383,0.116-0.677,0.198-0.881,0.245c-0.255,0.07-0.434,0.093-0.535,0.07
		c-0.23-0.07-0.428-0.245-0.594-0.525s-0.313-0.723-0.44-1.33c-0.051-0.187-0.07-0.495-0.058-0.927s0.045-0.922,0.096-1.47
		c0.052-0.549,0.108-1.12,0.173-1.715c0.063-0.596,0.114-1.155,0.153-1.681c0.038-0.524,0.069-0.979,0.096-1.364
		c0.024-0.385,0.024-0.647,0-0.788c-0.128-0.42-0.307-0.717-0.536-0.892c-0.229-0.176-0.408-0.193-0.536-0.053
		c-0.332,0.35-0.683,0.916-1.053,1.697c-0.37,0.782-0.721,1.633-1.053,2.555s-0.612,1.837-0.842,2.747
		S144.409,65.423,144.358,66.053z"/>
	<path fill="#303336" d="M155.421,64.233c-0.179-1.283-0.325-2.461-0.44-3.535c-0.114-1.072-0.197-1.982-0.249-2.729
		c-0.076-0.887-0.128-1.68-0.152-2.38c-0.077-0.862-0.141-1.737-0.191-2.625c-0.052-0.886-0.083-1.737-0.096-2.555
		c-0.014-0.816-0.014-1.592,0-2.327c0.013-0.734,0.031-1.382,0.058-1.942c0.024-0.56,0.261-1.009,0.708-1.347
		c0.446-0.338,0.931-0.583,1.454-0.735c0.522-0.151,1.008-0.222,1.455-0.21c0.446,0.012,0.67,0.088,0.67,0.228
		c0.024,0.56,0.031,1.289,0.019,2.188s-0.032,1.779-0.058,2.642c-0.025,1.004-0.063,2.054-0.114,3.15
		c-0.052,1.144-0.128,2.368-0.229,3.675c-0.077,1.119-0.167,2.414-0.269,3.884c-0.103,1.471-0.229,3.033-0.383,4.69
		c-0.102,0.116-0.21,0.204-0.325,0.262c-0.115,0.059-0.224,0.111-0.325,0.158c-0.128,0.047-0.256,0.069-0.383,0.069
		c-0.153,0-0.294-0.022-0.421-0.069C155.867,64.63,155.625,64.467,155.421,64.233z M157.641,65.843c0.485,0,0.894,0.129,1.226,0.386
		c0.331,0.257,0.497,0.618,0.497,1.085c0,0.279-0.063,0.577-0.191,0.892c-0.128,0.315-0.325,0.606-0.593,0.875
		c-0.269,0.269-0.606,0.49-1.015,0.665s-0.906,0.263-1.493,0.263c-0.511,0-0.899-0.14-1.167-0.42c-0.269-0.28-0.402-0.63-0.402-1.05
		c0-0.7,0.3-1.324,0.899-1.872C156.001,66.117,156.747,65.843,157.641,65.843z"/>
</g>
</svg>
