<?xml version="1.0" encoding="utf-8"?>
<!-- Generator: Adobe Illustrator 16.0.0, SVG Export Plug-In . SVG Version: 6.00 Build 0)  -->
<!DOCTYPE svg PUBLIC "-//W3C//DTD SVG 1.1//EN" "http://www.w3.org/Graphics/SVG/1.1/DTD/svg11.dtd">
<svg version="1.1" id="Layer_1" xmlns="http://www.w3.org/2000/svg" xmlns:xlink="http://www.w3.org/1999/xlink" x="0px" y="0px"
	 width="144px" height="47px" viewBox="0 0 144 47" enable-background="new 0 0 144 47" xml:space="preserve">
<g>
	<path d="M31.556,24.503l8.632-23.301l0.205-0.456c0,0-0.014-0.003-0.033-0.007l0.006-0.017l-0.026,0.013
		c-0.566-0.104-5.796-0.971-11.537,1.043c0,0-9.487,4.483-16.529,8.221C4.695,14.018,0.971,20.739,0.462,26.717
		c-0.111,0.848-0.169,1.717-0.169,2.605c0,3.842,1.021,7.321,3.039,10.334c2.745,4.154,6.71,6.697,11.785,7.562
		c1.296,0.212,2.576,0.32,3.813,0.32c0.602,0,1.195-0.034,1.788-0.086l0.758-0.063v-0.008l23.425-12.332L31.556,24.503z
		 M17.13,9.493l12.492-6.265c0,0,4.063-1.247,7.949-1.043l-17.094,8.944c-0.008-0.001-0.015-0.001-0.022-0.001
		c0,0-0.02-0.001-0.023-0.001c-0.049-0.012-0.688-0.115-1.784-0.105c-0.058,0-0.116,0.004-0.178,0.004
		c-0.243,0.008-0.495,0.018-0.782,0.04c-1.596,0.114-3.798,0.497-6.455,1.566c-0.062,0.025-0.113,0.039-0.174,0.064
		c-0.031,0.01-0.13,0.057-0.098,0.036c0.158-0.096,0.344-0.206,0.522-0.312c-0.008,0.003-0.016,0.006-0.022,0.009
		C13.488,11.237,16.695,9.692,17.13,9.493z M20.926,39.087l-0.407,0.063c-0.75,0.117-1.419,0.174-2.059,0.174
		c-1.318,0-2.511-0.214-3.593-0.646l10.369-5.711l-6.505-5.16l2.985-8.924l5-2.663l-4.172,10.696l8.584,6.632L20.926,39.087z
		 M19.82,19.275l-3.041,9.093l5.484,4.349l-9.09,5.045c-0.485-0.34-0.944-0.735-1.379-1.188c-1.797-1.894-2.672-4.253-2.672-7.206
		c0-3.066,0.893-5.473,2.729-7.353c1.841-1.874,4.174-2.785,7.143-2.785c0.279,0,0.554,0.014,0.825,0.034V19.275z M19.82,45.859
		c-1.426,0.074-2.915-0.023-4.431-0.273c-4.604-0.783-8.196-3.087-10.681-6.846c-1.834-2.739-2.762-5.908-2.762-9.418
		c0-3.494,0.937-6.653,2.784-9.395c1.87-2.797,4.388-4.824,7.479-6.026c2.054-0.817,4.203-1.227,6.386-1.227
		c0.404,0,0.814,0.02,1.225,0.05v4.88c-0.273-0.018-0.546-0.028-0.825-0.028c-3.387,0-6.188,1.104-8.323,3.283
		c-2.126,2.17-3.203,5.033-3.203,8.507c0,3.35,1.053,6.159,3.13,8.346c2.075,2.168,4.72,3.268,7.861,3.268
		c0.44,0,0.89-0.021,1.36-0.069V45.859z M21.477,40.674l12.675-6.885l-9.616-7.426l5.344-13.698l-8.402,4.472v-4.666l15.84-8.292
		l-7.729,20.874l12.292,9.719L21.477,45.528V40.674z"/>
	<g>
		<path d="M65.559,5.135c-1.19-1.015-2.515-1.516-3.986-1.516c-1.395,0-2.522,0.438-3.382,1.325
			c-0.867,0.895-1.309,2.047-1.309,3.485c0,1.37,0.431,2.521,1.271,3.406c0.851,0.88,1.906,1.324,3.19,1.324
			c1.153,0,2.22-0.309,3.213-0.926c0.311-0.201,0.586-0.398,0.853-0.611c0.243-0.21,0.51-0.444,0.785-0.673v3.602l-0.153,0.118
			c-0.678,0.479-1.366,0.814-2.091,1.023c-0.778,0.233-1.58,0.342-2.404,0.342c-0.523,0-1.059-0.05-1.609-0.138
			c-2.132-0.364-3.776-1.412-4.925-3.156c-0.855-1.269-1.279-2.715-1.279-4.336c0-1.614,0.439-3.05,1.29-4.318
			c0.866-1.3,2.019-2.227,3.438-2.783c0.959-0.373,1.939-0.564,2.943-0.564c0.436,0,0.874,0.037,1.329,0.104
			c1.21,0.189,2.348,0.657,3.438,1.402l0.18,0.125l-0.174,3.297L65.559,5.135z"/>
		<path d="M72.615,1.078V9.85c0,1.071,0.23,1.889,0.696,2.474c0.46,0.585,1.242,0.87,2.342,0.87c1.101,0,1.871-0.293,2.336-0.874
			c0.455-0.593,0.681-1.412,0.681-2.47V1.078h3.057v8.989c0,3.983-2.02,5.967-6.073,5.967c-4.025,0-6.054-1.984-6.054-5.967V1.078
			H72.615z"/>
		<path d="M84.968,1.078h3.057v11.793h5.004v2.804h-8.061V1.078z"/>
		<path d="M100.001,3.785v11.889h-3.046V3.785H93.29l0.617-2.708h9.141l0.611,2.708H100.001z"/>
		<path d="M109.518,1.078V9.85c0,1.071,0.232,1.889,0.69,2.474c0.468,0.585,1.25,0.87,2.355,0.87c1.093,0,1.868-0.293,2.331-0.874
			c0.451-0.593,0.686-1.412,0.686-2.47V1.078h3.048v8.989c0,3.983-2.023,5.967-6.064,5.967c-4.036,0-6.065-1.984-6.065-5.967V1.078
			H109.518z"/>
		<path d="M125.18,9.97v5.705h-2.911V1.078h3.547c0.499,0,1.019,0.03,1.539,0.083c0.53,0.046,1.007,0.172,1.451,0.376
			c1.106,0.514,1.802,1.43,2.074,2.758c0.069,0.36,0.109,0.714,0.109,1.066c0,0.519-0.078,1.022-0.236,1.504
			c-0.394,1.275-1.262,2.081-2.633,2.411c0.527,0.075,0.962,0.347,1.331,0.803c0.349,0.451,0.7,0.995,1.039,1.626
			c0.34,0.63,0.693,1.304,1.069,2.011c0.375,0.706,0.851,1.365,1.41,1.958h-3.476c-0.428-0.413-0.798-0.906-1.084-1.495
			c-0.264-0.582-0.553-1.162-0.828-1.731c-0.279-0.566-0.609-1.086-0.97-1.549C126.243,10.442,125.773,10.138,125.18,9.97z
			 M125.32,6.957c0.327,0,0.71-0.016,1.151-0.059c0.44-0.042,0.771-0.126,0.98-0.279c0.272-0.197,0.425-0.586,0.425-1.149
			c0-0.317-0.043-0.592-0.141-0.823c-0.149-0.372-0.507-0.614-1.065-0.732c-0.327-0.07-0.783-0.108-1.351-0.108V6.957z"/>
		<path d="M136.206,1.078h8.501v2.708h-5.451v2.646h5.451v2.774h-5.451v3.666h5.451v2.804h-8.501V1.078z"/>
		<path d="M62.598,29.703l-2.961,5.142l-2.947-5.091v5.091h-2.958V19.649l5.905,10.054l5.909-10.054v15.195h-2.948V29.703z"/>
		<path d="M78.813,34.605L77.388,31.4h-4.782l-1.552,3.444h-3.146l7.074-15.208l7.084,15.208h-3.158L78.813,34.605z M73.758,28.818
			h2.514l-1.254-2.872L73.758,28.818z"/>
		<path d="M94.366,24.638c-1.155-0.985-2.445-1.474-3.864-1.474c-1.35,0-2.438,0.432-3.28,1.292
			c-0.838,0.856-1.266,1.977-1.266,3.363c0,1.338,0.419,2.438,1.238,3.307c0.814,0.857,1.845,1.278,3.088,1.278
			c1.113,0,2.145-0.296,3.104-0.891c0.296-0.191,0.581-0.388,0.824-0.598c0.253-0.202,0.508-0.427,0.772-0.659v3.505l-0.155,0.109
			c-0.648,0.46-1.32,0.786-2.022,0.986c-0.764,0.226-1.531,0.339-2.323,0.339c-0.514,0-1.026-0.047-1.567-0.134
			c-2.065-0.351-3.659-1.376-4.772-3.063c-0.817-1.228-1.229-2.624-1.229-4.192c0-1.566,0.412-2.959,1.24-4.192
			c0.835-1.253,1.951-2.151,3.348-2.69c0.911-0.369,1.854-0.548,2.834-0.548c0.42,0,0.854,0.034,1.295,0.104
			c1.161,0.185,2.282,0.636,3.336,1.354l0.173,0.117l-0.172,3.197L94.366,24.638z"/>
		<path d="M98.285,20.703h2.94v4.927h5.798v-4.927h2.949v14.142h-2.949V28.35h-5.798v6.495h-2.94V20.703z"/>
		<path d="M114.262,20.703h2.954v14.142h-2.954V20.703z"/>
		<path d="M121.125,19.649l8.865,9.11v-8.057h2.946v15.191l-8.847-9.487v8.438h-2.965V19.649z"/>
		<path d="M136.464,20.703h8.233v2.629h-5.278v2.561h5.278v2.687h-5.278v3.544h5.278v2.722h-8.233V20.703z"/>
	</g>
</g>
</svg>
